<?xml version="1.0" encoding="utf-8"?>
<!-- Generator: Adobe Illustrator 27.5.0, SVG Export Plug-In . SVG Version: 6.00 Build 0)  -->
<svg version="1.1" id="Layer_1" xmlns="http://www.w3.org/2000/svg" xmlns:xlink="http://www.w3.org/1999/xlink" x="0px" y="0px"
	 viewBox="0 0 196.1 262.8" style="enable-background:new 0 0 196.1 262.8;" xml:space="preserve">
<style type="text/css">
	.st0{fill:#574E39;}
	.st1{font-family:'Counter-StrikeRegular';}
	.st2{font-size:75.67px;}
	.st3{fill:#998D5E;}
</style>
<circle class="st0" cx="98" cy="98" r="98"/>
<text transform="matrix(0.73 0 0 1 14.98 243.9102)" class="st1 st2">CSGO</text>
<path class="st3" d="M98,0C43.9,0,0,43.9,0,98s43.9,98,98,98s98-43.9,98-98S152.2,0,98,0z M85.8,55.6L98,30.9l12.2,24.8l27.3,4
	l-19.8,19.3l4.7,27.2L98,93.3l-24.4,12.8l4.7-27.2L58.5,59.6C58.5,59.6,85.8,55.6,85.8,55.6z M134.8,158.5l-7.6,13.1L98,154.7
	l-29.2,16.8l-7.6-13.1L82.9,146l-60.4-34.9L30.1,98l68,39.3L166,98l7.6,13.1L113.2,146L134.8,158.5z"/>
<path d="M98,0C43.9,0,0,43.9,0,98c0,54.1,43.9,98,98,98c54.1,0,98-43.9,98-98C196.1,43.9,152.2,0,98,0z M97.7,190.7
	c-51,0-92.4-41.4-92.4-92.4c0-51,41.4-92.4,92.4-92.4S190,47.3,190,98.3C190,149.3,148.7,190.7,97.7,190.7z"/>
</svg>
