<?xml version="1.0" standalone="no"?>
<!DOCTYPE svg PUBLIC "-//W3C//DTD SVG 20010904//EN"
 "http://www.w3.org/TR/2001/REC-SVG-20010904/DTD/svg10.dtd">
<svg version="1.0" xmlns="http://www.w3.org/2000/svg"
 width="409.000000pt" height="409.000000pt" viewBox="0 0 409.000000 409.000000"
 preserveAspectRatio="xMidYMid meet">
<metadata>
Created by potrace 1.14, written by Peter Selinger 2001-2017
</metadata>
<g transform="translate(0.000000,409.000000) scale(0.100000,-0.100000)"
fill="#000000" stroke="none">
<path d="M1830 4080 c-126 -16 -159 -22 -245 -42 -916 -212 -1571 -1026 -1578
-1958 -2 -193 5 -276 33 -422 134 -694 619 -1270 1280 -1521 84 -32 211 -71
270 -82 12 -2 29 -6 38 -9 9 -3 37 -8 62 -11 24 -4 47 -8 50 -10 14 -9 195
-19 320 -19 163 0 226 6 400 39 237 43 524 167 745 320 397 276 680 671 810
1134 13 47 26 100 29 116 3 17 8 40 10 53 21 104 30 213 30 367 1 200 -4 259
-34 410 -6 28 -12 59 -14 71 -8 40 -48 169 -78 254 -68 187 -221 449 -343 586
-5 6 -32 38 -60 69 -128 148 -389 347 -582 444 -209 104 -372 155 -663 206
-52 10 -416 13 -480 5z m474 -1150 c2 0 25 -4 52 -9 27 -5 74 -12 104 -16 30
-3 66 -8 80 -10 33 -6 75 -12 130 -20 25 -3 56 -8 70 -10 14 -2 45 -7 70 -10
25 -4 46 -8 48 -9 1 -2 -70 -75 -159 -162 -89 -88 -179 -177 -201 -198 -47
-46 -49 -2 17 -379 20 -115 34 -211 31 -214 -2 -3 -74 31 -158 75 -84 45 -196
103 -248 131 l-94 49 -101 -53 c-55 -29 -154 -81 -220 -115 -66 -35 -124 -66
-130 -70 -5 -4 -21 -11 -34 -15 -21 -6 -23 -5 -17 22 3 15 8 44 11 63 3 19 14
85 25 145 11 61 22 127 25 147 3 20 12 68 19 105 l12 68 -204 200 -204 200 73
12 c41 7 94 15 119 18 25 3 56 7 70 10 31 5 172 25 220 31 88 12 75 -5 210
270 l124 255 128 -256 c71 -140 130 -255 132 -255z m-1625 -912 c43 -28 58
-37 108 -64 21 -12 312 -180 647 -373 335 -194 615 -350 622 -347 7 3 93 52
191 109 98 57 273 158 388 224 116 67 278 160 360 208 311 181 466 268 469
264 24 -27 146 -255 142 -266 -3 -7 -14 -16 -23 -20 -10 -4 -41 -22 -70 -40
-29 -18 -54 -33 -57 -33 -3 0 -61 -32 -128 -72 -215 -125 -295 -171 -628 -363
-179 -103 -328 -190 -332 -194 -4 -3 25 -25 65 -47 40 -23 141 -81 224 -129
l153 -88 -19 -31 c-10 -17 -44 -76 -76 -131 -31 -55 -58 -101 -60 -103 -2 -2
-63 31 -137 73 -73 43 -151 87 -173 100 -22 13 -98 57 -170 98 l-129 74 -33
-18 c-42 -24 -64 -37 -258 -149 -246 -143 -316 -182 -319 -178 -26 34 -146
259 -142 266 3 5 102 65 221 132 118 68 212 127 207 131 -6 7 -311 185 -412
241 -43 24 -271 156 -657 380 -95 55 -173 103 -173 107 0 3 28 53 62 111 33
58 66 115 72 127 14 28 20 28 65 1z"/>
</g>
</svg>
